<?xml version="1.0" encoding="UTF-8" standalone="no"?>
<!-- Created with Inkscape (http://www.inkscape.org/) -->

<svg
   xmlns:dc="http://purl.org/dc/elements/1.1/"
   xmlns:cc="http://creativecommons.org/ns#"
   xmlns:rdf="http://www.w3.org/1999/02/22-rdf-syntax-ns#"
   xmlns:svg="http://www.w3.org/2000/svg"
   xmlns="http://www.w3.org/2000/svg"
   xmlns:xlink="http://www.w3.org/1999/xlink"
   xmlns:sodipodi="http://sodipodi.sourceforge.net/DTD/sodipodi-0.dtd"
   xmlns:inkscape="http://www.inkscape.org/namespaces/inkscape"
   width="140.22916mm"
   height="48.127831mm"
   viewBox="0 0 140.22916 48.12783"
   version="1.1"
   id="svg856"
   inkscape:version="0.92.4 (5da689c313, 2019-01-14)"
   sodipodi:docname="shiro.svg">
  <defs
     id="defs850">
    <linearGradient
       inkscape:collect="always"
       id="linearGradient1487">
      <stop
         style="stop-color:#4274ca;stop-opacity:1"
         offset="0"
         id="stop1483" />
      <stop
         style="stop-color:#171e5a;stop-opacity:1"
         offset="1"
         id="stop1485" />
    </linearGradient>
    <linearGradient
       inkscape:collect="always"
       id="linearGradient1460">
      <stop
         style="stop-color:#ced2d5;stop-opacity:1"
         offset="0"
         id="stop1456" />
      <stop
         id="stop1464"
         offset="1"
         style="stop-color:#6a7681;stop-opacity:1" />
    </linearGradient>
    <radialGradient
       inkscape:collect="always"
       xlink:href="#linearGradient1460"
       id="radialGradient1466"
       cx="-247.18375"
       cy="-101.49687"
       fx="-247.18375"
       fy="-101.49687"
       r="290.07584"
       gradientTransform="matrix(0.22784675,0.03185833,-0.00781183,0.05586921,-245.95432,-16.498647)"
       gradientUnits="userSpaceOnUse" />
    <radialGradient
       inkscape:collect="always"
       xlink:href="#linearGradient1487"
       id="radialGradient1489"
       cx="-235.84052"
       cy="-109.55988"
       fx="-235.84052"
       fy="-109.55988"
       r="50.208981"
       gradientTransform="matrix(0.4473279,-0.02729425,0.02706255,0.44353061,-190.27666,10.862439)"
       gradientUnits="userSpaceOnUse" />
    <linearGradient
       inkscape:collect="always"
       xlink:href="#linearGradient1487"
       id="linearGradient1497"
       x1="124.14541"
       y1="-121.1451"
       x2="124.14541"
       y2="-54.924953"
       gradientUnits="userSpaceOnUse"
       gradientTransform="matrix(0.24171122,0,0,0.24171122,-254.04732,-4.3745472)" />
  </defs>
  <sodipodi:namedview
     id="base"
     pagecolor="#ffffff"
     bordercolor="#666666"
     borderopacity="1.0"
     inkscape:pageopacity="0.0"
     inkscape:pageshadow="2"
     inkscape:zoom="0.35"
     inkscape:cx="1034.4963"
     inkscape:cy="265.16891"
     inkscape:document-units="mm"
     inkscape:current-layer="layer1"
     showgrid="false"
     inkscape:window-width="1600"
     inkscape:window-height="877"
     inkscape:window-x="-8"
     inkscape:window-y="-8"
     inkscape:window-maximized="1"
     fit-margin-top="0"
     fit-margin-left="0"
     fit-margin-right="0"
     fit-margin-bottom="0">
    <inkscape:grid
       type="xygrid"
       id="grid1499"
       originx="318.78935"
       originy="-303.34558" />
  </sodipodi:namedview>
  <metadata
     id="metadata853">
    <rdf:RDF>
      <cc:Work
         rdf:about="">
        <dc:format>image/svg+xml</dc:format>
        <dc:type
           rdf:resource="http://purl.org/dc/dcmitype/StillImage" />
        <dc:title></dc:title>
      </cc:Work>
    </rdf:RDF>
  </metadata>
  <g
     inkscape:label="Layer 1"
     inkscape:groupmode="layer"
     id="layer1"
     transform="translate(318.78933,54.473426)">
    <path
       style="fill:url(#radialGradient1466);fill-opacity:1;stroke-width:0.06395276"
       d="m -295.96856,-54.473416 c -0.57447,7.25e-4 -1.19696,0.04912 -1.73822,0.144642 -4.49029,0.792441 -11.24912,4.122221 -19.91029,9.808881 l -1.17226,0.769555 0.0403,0.996764 c 0.1131,2.796019 0.23184,4.188979 0.51824,6.080884 0.38588,2.549023 0.96232,4.971639 1.73372,7.285993 1.28579,3.857634 3.73123,8.564232 6.44736,12.408958 0.42209,0.597473 0.80075,1.086979 0.84138,1.087946 0.0406,9.43e-4 0.15338,-0.134951 0.25056,-0.302027 0.5167,-0.88833 1.20972,-1.851338 1.89623,-2.634804 0.16796,-0.191684 0.30514,-0.378747 0.3049,-0.415693 -2.4e-4,-0.03694 -0.2176,-0.369376 -0.4829,-0.738704 -1.19819,-1.668029 -2.32349,-3.571547 -3.42147,-5.787725 -0.98112,-1.980312 -1.51554,-3.25231 -2.10919,-5.020292 -0.96793,-2.882631 -1.63676,-6.192588 -1.92296,-9.515844 -0.0671,-0.779507 -0.0654,-0.926668 0.012,-0.998889 0.12937,-0.120672 4.60376,-2.799663 6.39016,-3.826047 5.97104,-3.430708 10.42133,-5.362774 13.07634,-5.676933 1.35817,-0.160709 2.3483,0.167259 2.72311,0.90196 0.07,0.137294 0.15451,0.24969 0.18761,0.24969 0.22658,0 0.29912,-1.561796 0.10693,-2.3023 -0.32821,-1.264572 -1.08875,-2.042926 -2.32154,-2.375869 -0.34909,-0.09428 -0.87559,-0.140949 -1.45005,-0.140146 z m 18.279,2.739726 -0.0174,1.309408 c -0.01,0.720116 -0.003,1.346602 0.0145,1.39222 0.025,0.0652 0.32416,0.07926 1.39235,0.0657 l 1.3605,-0.01735 v -1.374984 -1.374984 h -1.37499 z m -10.56083,3.512405 c -0.009,-4.83e-4 -0.0157,2.42e-4 -0.019,0.0024 -0.0281,0.01738 -0.0652,0.31284 -0.0826,0.65664 -0.0465,0.923161 -0.40533,1.928566 -1.01787,2.852019 -0.13581,0.204739 -0.24695,0.410771 -0.24695,0.457786 0,0.05158 0.24734,0.166186 0.62354,0.289036 1.21296,0.39609 2.75261,1.042675 4.2741,1.794923 0.84706,0.418801 1.58411,0.8123 1.63791,0.874354 0.0866,0.09985 0.0882,0.219486 0.0137,1.040108 -0.4605,5.07558 -1.61381,9.452448 -3.63981,13.813796 -2.0466,4.405692 -5.10837,8.595036 -8.50534,11.637653 -3.38711,3.033773 -6.88706,5.1388539 -8.92266,5.3665362 -1.22434,0.1369415 -2.12395,-0.2954217 -2.61295,-1.2558222 -0.23557,-0.462701 -0.28636,-0.356733 -0.24507,0.511622 0.1097,2.3069328 1.22641,3.644575 3.17978,3.8089362 1.71357,0.1441856 3.52533,-0.3134514 5.91488,-1.4938964 2.55597,-1.2626583 4.637,-2.8245798 7.03493,-5.2800998 4.80168,-4.917005 8.38044,-11.381157 10.33387,-18.665837 0.7423,-2.768188 1.33378,-6.474133 1.41395,-8.858581 l 0.0194,-0.575574 -0.83138,-0.03198 -0.83139,-0.03198 v -1.151149 -1.15115 l 1.05522,-0.03198 1.05522,-0.03198 v -2.142417 -2.142417 h -2.14242 -2.14241 l -0.018,0.830261 c -0.01,0.456614 -0.0414,0.853606 -0.0701,0.882224 -0.0286,0.02862 -0.27955,-0.05252 -0.55759,-0.180242 -1.32001,-0.606347 -4.38474,-1.779787 -4.67105,-1.793175 z m 12.54336,1.795673 -0.0179,0.89234 c -0.01,0.490746 -0.003,0.930426 0.0146,0.97703 0.0254,0.06631 0.23925,0.08077 0.97716,0.06695 l 0.94468,-0.01774 v -0.959292 -0.959291 h -0.9593 z m 5.93762,2.526133 -1.83365,3.224244 c -1.0085,1.773293 -1.83365,3.255394 -1.83365,3.293567 0,0.04405 0.1848,0.06932 0.50601,0.06932 h 0.50612 l 0.39246,-0.704107 0.39234,-0.704228 2.63455,0.01673 2.63443,0.01661 0.28829,0.515369 c 0.51302,0.917237 0.44653,0.859617 0.99314,0.859617 0.30171,0 0.47815,-0.02558 0.47815,-0.06945 0,-0.03824 -0.82317,-1.520345 -1.82928,-3.293567 l -1.82927,-3.224118 h -0.74982 z m 15.98819,0 -1.83365,3.224244 c -1.0085,1.773293 -1.83365,3.255394 -1.83365,3.293567 0,0.04405 0.1848,0.06932 0.50601,0.06932 h 0.50612 l 0.39246,-0.704107 0.39234,-0.704228 2.63455,0.01673 2.63443,0.01661 0.28829,0.515369 c 0.51302,0.917237 0.44653,0.859617 0.99314,0.859617 0.3017,0 0.47815,-0.02558 0.47815,-0.06945 0,-0.03824 -0.82318,-1.520345 -1.82928,-3.293567 l -1.82927,-3.224118 h -0.74982 z m 8.51283,0.0082 c -2.48277,0.01535 -2.86804,0.29152 -3.07647,1.498269 -0.13826,0.800424 -0.0932,3.480723 0.0668,3.978436 0.20627,0.641479 0.59614,0.92061 1.44568,1.034985 v -1.25e-4 c 0.64777,0.08721 4.83907,0.04135 5.1482,-0.05633 0.32663,-0.103203 0.64523,-0.34359 0.76668,-0.578448 0.11881,-0.229759 0.25675,-1.401901 0.17462,-1.484027 -0.0324,-0.03239 -0.24309,-0.05021 -0.46815,-0.0396 l -0.4092,0.01936 -0.0357,0.458287 c -0.0603,0.773969 -0.21919,0.856451 -1.75495,0.910452 -0.59796,0.0211 -1.59083,0.02129 -2.20637,7.25e-4 -1.87161,-0.06284 -1.8207,0.0049 -1.82191,-2.424584 -7.2e-4,-1.567741 0.009,-1.713921 0.12716,-1.950561 0.24502,-0.490045 0.68891,-0.565619 3.09159,-0.526735 2.31553,0.03748 2.40185,0.06692 2.5325,0.863487 l 0.0706,0.430681 h 0.38234 0.38222 l 0.0189,-0.430055 c 0.0255,-0.580931 -0.0769,-0.921973 -0.36249,-1.207608 -0.41415,-0.414153 -0.66468,-0.456815 -2.87387,-0.489016 -0.4459,-0.0065 -0.84344,-0.0097 -1.19812,-0.0075 z m -14.88013,0.0019 c -0.30681,7.25e-4 -0.65198,0.0024 -1.04123,0.0046 l -2.94183,0.01723 -0.0166,3.197639 c -0.009,1.7587 -0.002,3.235044 0.0151,3.280703 0.0225,0.0588 0.14871,0.07746 0.43243,0.06395 l 0.40046,-0.01912 0.032,-1.215101 0.032,-1.215102 2.68602,-0.03198 c 2.61045,-0.03108 2.69344,-0.03594 2.94794,-0.172125 0.6497,-0.347655 0.8211,-0.800025 0.78367,-2.067846 -0.0275,-0.932764 -0.15973,-1.304265 -0.55771,-1.566968 -0.35625,-0.235166 -0.62455,-0.280492 -2.7722,-0.275921 z m 20.19108,0.02185 -0.0166,3.197639 c -0.009,1.7587 -0.002,3.235044 0.0151,3.280703 0.0225,0.0588 0.14871,0.07746 0.43243,0.06395 l 0.40045,-0.01912 0.032,-1.502887 0.032,-1.502891 h 2.97381 2.9738 l 0.032,1.502891 0.032,1.502887 h 0.4157 0.41569 v -3.26159 -3.261591 h -0.41569 -0.4157 l -0.032,1.343008 -0.032,1.343008 h -2.9738 -2.97381 l -0.032,-1.343008 -0.032,-1.343008 h -0.41569 z m 8.82549,0 -0.0166,3.197639 c -0.009,1.7587 -0.003,3.233908 0.0142,3.278204 0.0244,0.06347 0.70163,0.07706 3.21425,0.06395 l 3.1834,-0.01661 v -0.351738 -0.35174 l -2.74997,-0.03198 -2.74997,-0.03198 v -1.119171 -1.119174 l 2.62207,-0.03198 2.62206,-0.03198 v -0.351738 -0.351741 l -2.62206,-0.03198 -2.62207,-0.03198 v -0.959292 -0.959291 l 2.74997,-0.03198 2.74997,-0.03198 v -0.351741 -0.35174 h -3.19764 z m -37.86641,0.742827 c 0.0262,2.42e-4 0.0531,0.01093 0.0847,0.03085 0.13197,0.08324 1.99057,3.337568 1.99615,3.495169 0.004,0.104375 -0.13595,0.111917 -2.07072,0.111917 -1.25405,0 -2.08968,-0.02415 -2.11257,-0.0612 -0.0412,-0.06673 1.76392,-3.280084 1.95906,-3.487298 0.0581,-0.06168 0.0997,-0.08991 0.14339,-0.08944 z m 15.98819,0 c 0.0262,2.42e-4 0.0531,0.01093 0.0847,0.03085 0.13197,0.08324 1.99059,3.337568 1.99615,3.495169 0.004,0.104375 -0.13595,0.111917 -2.07072,0.111917 -1.25405,0 -2.08968,-0.02415 -2.11257,-0.0612 -0.0412,-0.06673 1.76392,-3.280084 1.95906,-3.487298 0.0581,-0.06168 0.0997,-0.08991 0.14339,-0.08944 z m -10.22607,0.02461 2.38299,0.01337 c 2.22226,0.01242 2.40238,0.0219 2.67028,0.140395 0.36494,0.161432 0.41469,0.293431 0.41469,1.100688 0,0.740997 -0.0763,0.94649 -0.41045,1.105058 -0.3213,0.152469 -5.00122,0.240319 -5.05701,0.09493 -0.0194,-0.05077 -0.0276,-0.623722 -0.018,-1.273309 z m 73.89192,8.092398 c 1.18227,-1.53e-4 2.3633,0.0049 3.33791,0.01511 -0.97464,-0.01027 -2.1556,-0.01528 -3.33791,-0.01511 z m -63.01995,0.285415 -0.0165,7.898166 c -0.002,1.085997 -0.003,2.12493 -0.004,3.073104 4.1e-4,-0.948174 0.002,-1.987107 0.004,-3.073104 z m -4.89201,0.12778 c 0.11182,0.03138 0.2191,0.06472 0.32201,0.09993 -0.10291,-0.0352 -0.21019,-0.06855 -0.32201,-0.09993 z m 58.21187,0.886595 c -0.0259,0.02554 -0.0513,0.05156 -0.0763,0.07807 0.025,-0.02651 0.0506,-0.05253 0.0765,-0.07807 -2e-5,2.1e-5 -1e-4,-2e-5 -1.3e-4,0 z m 19.85571,0.565582 c 0.0429,0.0673 0.0835,0.136922 0.12203,0.209097 -0.0385,-0.07218 -0.0791,-0.141797 -0.12203,-0.209097 z m -20.49324,0.343996 c -0.0451,0.09661 -0.0876,0.198409 -0.12765,0.306275 0.04,-0.107866 0.0825,-0.209668 0.12765,-0.306275 z m 21.03946,1.084575 c 0.0307,0.131445 0.058,0.260505 0.0823,0.39296 -0.0243,-0.132455 -0.0516,-0.261515 -0.0823,-0.39296 z m -81.16329,0.779674 c 0.0226,0.02033 0.0437,0.04182 0.0633,0.06458 -0.0196,-0.02279 -0.0407,-0.04423 -0.0633,-0.06458 z m 0.0633,0.06458 c 0.0589,0.06828 0.10482,0.147905 0.14065,0.241196 -0.0358,-0.09329 -0.0818,-0.172913 -0.14065,-0.241196 z m -8.7855,-0.05558 c -0.0209,0.02113 -0.0415,0.04358 -0.0628,0.06745 0.0213,-0.02388 0.0421,-0.04634 0.063,-0.06745 -2e-5,2.2e-5 -1e-4,-2.4e-5 -1.2e-4,0 z m 13.79505,0.104047 0.002,1.087198 h 1.3e-4 z m -4.81007,0.39833 c 0.0156,0.07505 0.0274,0.156779 0.0362,0.24607 -0.009,-0.08929 -0.0206,-0.171023 -0.0362,-0.24607 z m 0.0362,0.24607 0.0437,0.442798 h 1.3e-4 z m 52.40942,-0.21784 c 0.026,0.02144 0.0507,0.04359 0.0738,0.06658 -0.0232,-0.02301 -0.0478,-0.04512 -0.0738,-0.06658 z m 23.24707,0.278669 c 0.0317,0.03598 0.0618,0.07346 0.0904,0.112792 -0.0286,-0.03933 -0.0587,-0.07681 -0.0904,-0.112792 z m -84.89129,0.335127 c 0.0134,0.08307 0.0321,0.156917 0.0567,0.222711 -0.0246,-0.06579 -0.0433,-0.139637 -0.0567,-0.222711 z m -24.55349,0.182741 c -0.0621,0.05557 -0.15736,0.134749 -0.27841,0.231705 0.12105,-0.09696 0.21628,-0.17614 0.27841,-0.231705 z m 34.78456,1.011503 c 0.20175,0.01727 0.39002,0.03571 0.56621,0.05558 -0.17619,-0.01988 -0.36446,-0.03831 -0.56621,-0.05558 z m 56.69699,0.917447 c -0.009,0.116472 -0.0197,0.220458 -0.0323,0.315766 0.0127,-0.09531 0.0233,-0.199294 0.0323,-0.315766 z m -5.45285,0.590938 c -0.0394,0.02309 -0.0814,0.04294 -0.12915,0.06008 0.0478,-0.01714 0.0898,-0.037 0.12915,-0.06008 z m -0.12915,0.06008 c -0.0478,0.01714 -0.10138,0.03163 -0.16388,0.04409 0.0625,-0.01246 0.1161,-0.02695 0.16388,-0.04409 z m -0.26468,0.06133 c -0.0722,0.01059 -0.15503,0.01944 -0.25144,0.02723 0.0964,-0.0078 0.17922,-0.01664 0.25144,-0.02723 z m -0.78817,0.05721 c -0.14452,0.006 -0.3075,0.01167 -0.49201,0.01798 -0.19345,0.0066 -0.46669,0.01312 -0.79491,0.01911 0.32822,-0.006 0.60145,-0.01236 0.79491,-0.01899 0.18451,-0.0063 0.34749,-0.01215 0.49201,-0.01811 z m -45.87886,0.832134 c 0.0173,0.05557 0.034,0.112424 0.0502,0.170624 0.009,0.03238 0.0178,0.07192 0.0261,0.117913 -0.008,-0.046 -0.017,-0.08553 -0.026,-0.117913 -0.0162,-0.0582 -0.033,-0.115051 -0.0503,-0.170624 z m 0.0763,0.288537 c 0.0166,0.09199 0.0317,0.209608 0.0453,0.34612 -0.0136,-0.136512 -0.0287,-0.254128 -0.0453,-0.34612 z m 0.0453,0.34612 c 0.0136,0.136512 0.0256,0.292017 0.0359,0.459785 -0.0102,-0.167768 -0.0223,-0.323273 -0.0359,-0.459785 z m 0.0498,0.719843 c 0.0169,0.356845 0.0264,0.749662 0.0274,1.125419 -9e-4,-0.375757 -0.0105,-0.768574 -0.0274,-1.125419 z m 0.0264,1.403214 c -0.002,0.181952 -0.006,0.356217 -0.0121,0.516368 0.006,-0.160118 0.0104,-0.334462 0.0121,-0.516368 z m 75.56918,1.10993 c -0.0243,0.132454 -0.0516,0.261515 -0.0823,0.39296 0.0307,-0.131445 0.058,-0.260506 0.0823,-0.39296 z m -75.65712,0.212093 c -0.0217,0.1332 -0.0463,0.261761 -0.0738,0.38584 0.0276,-0.124079 0.0522,-0.25264 0.0738,-0.38584 z m -0.11741,0.56858 c -0.0306,0.119576 -0.064,0.234681 -0.10055,0.34537 0.0365,-0.110689 0.07,-0.225794 0.10055,-0.34537 z m -0.28554,0.814023 c -0.0457,0.09765 -0.0943,0.191018 -0.14614,0.280168 0.0518,-0.08915 0.10048,-0.182518 0.14614,-0.280168 z m 75.55356,0.01786 c -0.0385,0.07217 -0.0791,0.141671 -0.12203,0.208971 0.0429,-0.0673 0.0835,-0.136797 0.12203,-0.208971 z m -75.95401,0.63528 c -0.0612,0.0767 -0.12547,0.149377 -0.19299,0.217965 0.0675,-0.06859 0.1318,-0.141269 0.19299,-0.217965 z m 57.03711,0.829087 c 0.0697,0.02967 0.14175,0.05797 0.21634,0.08494 -0.0746,-0.02697 -0.14664,-0.05527 -0.21634,-0.08494 z m 13.34415,0.572077 c -0.35427,0.0068 -0.79686,0.01242 -1.29842,0.01686 0.50156,-0.0044 0.94415,-0.01002 1.29842,-0.01686 z m -116.16719,0.967036 c -0.58019,0.380614 -1.08414,0.713773 -1.52575,1.00913 0.44161,-0.295357 0.94556,-0.628516 1.52575,-1.00913 z m -8.49373,5.873661 c -9.6e-4,0.125831 0.003,0.249786 0.0121,0.37185 -0.009,-0.122064 -0.0131,-0.246019 -0.0121,-0.37185 z"
       id="path1423"
       inkscape:connector-curvature="0" />
    <path
       style="fill:url(#radialGradient1489);fill-opacity:1;stroke-width:0.06395276"
       d="m -308.07022,-9.3653388 c -1.33468,-1.4748762 -1.40013,-3.4845232 -0.19291,-5.9234182 0.92031,-1.859241 2.39038,-3.739672 4.81519,-6.15929 2.43074,-2.425539 5.1102,-4.673335 9.07502,-7.61301 0.78025,-0.578511 1.38134,-1.059937 1.33575,-1.069842 -0.0456,-0.0099 -0.49924,0.158678 -1.00811,0.374616 -4.02102,1.706334 -7.40139,2.80267 -9.55884,3.100185 -0.94779,0.130701 -2.40981,0.098 -3.03776,-0.06795 -1.56518,-0.413629 -2.89359,-1.597799 -3.71127,-3.308304 -0.37716,-0.788992 -0.51921,-1.410637 -0.52255,-2.286915 -0.006,-1.606797 0.63665,-3.05406 1.95518,-4.402187 1.05856,-1.08232 1.8061,-1.578993 6.53554,-4.342274 3.07755,-1.798129 4.25195,-2.515557 5.81566,-3.552715 3.48586,-2.312067 5.03337,-3.897241 5.60386,-5.740257 0.26115,-0.843698 0.17699,-1.981087 -0.21408,-2.893054 -0.0721,-0.168147 -0.11227,-0.32456 -0.0892,-0.347586 0.073,-0.07297 0.54853,0.442189 0.91618,0.992467 2.01216,3.011791 0.66961,6.963008 -3.97824,11.708208 -2.11321,2.157471 -4.10502,3.862587 -7.41966,6.351709 -1.30531,0.980219 -1.65235,1.266398 -1.5357,1.266398 0.0252,0 0.78415,-0.277311 1.68659,-0.616253 4.87345,-1.830372 7.6909,-2.532843 9.76279,-2.434145 1.32751,0.06324 2.14139,0.382576 2.96538,1.163511 0.69699,0.660575 1.32173,1.609758 1.80401,2.740862 0.64677,1.516898 0.61632,3.103193 -0.0862,4.489167 -0.41145,0.811785 -1.47448,1.983591 -2.47686,2.730307 -0.2638,0.196524 -3.18484,2.108414 -6.4912,4.248648 -7.52459,4.870732 -8.39503,5.474222 -9.71465,6.735285 -1.40878,1.346262 -2.04796,2.517365 -2.04225,3.741777 0.002,0.445643 0.0485,0.6992538 0.24864,1.3589973 0.074,0.2439857 -0.0707,0.1634644 -0.44031,-0.2449371 z"
       id="path1423-3"
       inkscape:connector-curvature="0"
       sodipodi:nodetypes="csssccsccccscccccssscsscccscccc" />
    <path
       style="fill:url(#linearGradient1497);fill-opacity:1;stroke-width:0.06395276"
       d="m -268.83888,-17.433901 c -3.04786,-0.20158 -4.37404,-0.869848 -4.85484,-2.446376 -0.15719,-0.515447 -0.27652,-1.699996 -0.24889,-2.470697 l 0.0195,-0.543596 h 2.36508 2.36507 l 0.0737,0.51854 c 0.0849,0.597713 0.18265,0.777962 0.52644,0.971181 0.42817,0.240646 1.01463,0.276298 4.5504,0.276627 3.43543,2.42e-4 4.10505,-0.03647 4.53913,-0.249366 0.33563,-0.164611 0.392,-0.330209 0.37126,-1.090672 -0.0178,-0.653338 -0.0204,-0.662963 -0.22246,-0.843424 -0.11244,-0.100397 -0.31389,-0.214722 -0.44767,-0.254044 -0.13377,-0.03933 -1.23609,-0.112257 -2.4496,-0.162065 -6.10325,-0.250507 -6.99334,-0.291832 -7.67118,-0.356166 -2.23689,-0.212292 -3.30905,-0.96793 -3.69263,-2.602485 -0.095,-0.405028 -0.11569,-0.772454 -0.11569,-2.059802 0,-1.443897 0.0119,-1.612007 0.15158,-2.142418 0.1999,-0.759036 0.45725,-1.254817 0.88308,-1.701258 0.42061,-0.440963 1.01145,-0.765973 1.71531,-0.943546 1.03292,-0.260594 1.85651,-0.297025 6.71503,-0.297025 4.10583,0 4.69748,0.01267 5.46224,0.116969 2.33396,0.318312 3.34215,1.001927 3.76115,2.550283 0.0819,0.302739 0.10952,0.671912 0.11131,1.489681 l 0.002,1.087197 h -2.36626 -2.36625 l -0.0437,-0.442763 c -0.0706,-0.714315 -0.33281,-0.95061 -1.18166,-1.06485 -0.3295,-0.04434 -1.66318,-0.05977 -3.76727,-0.04357 -3.62343,0.0279 -3.79387,0.04552 -4.13509,0.427418 -0.16148,0.18072 -0.17731,0.242695 -0.1771,0.693092 2.5e-4,0.583757 0.13332,0.865759 0.47594,1.008915 0.32533,0.135929 1.14419,0.208266 3.2011,0.282778 4.78297,0.173259 5.48985,0.202723 6.26736,0.261266 1.72532,0.1299 2.53624,0.320509 3.20265,0.752788 0.68156,0.442106 1.08484,1.030886 1.34388,1.962086 0.14411,0.518057 0.20158,2.885227 0.09,3.705865 -0.14995,1.102552 -0.48664,1.908233 -1.02676,2.45693 -0.74721,0.759096 -1.60711,1.018713 -3.83359,1.157419 -1.22766,0.07648 -8.41791,0.0728 -9.59289,-0.0049 z m 73.67358,0.0017 c -2.22294,-0.141045 -3.27149,-0.461093 -4.0676,-1.241557 -0.63512,-0.622628 -0.93443,-1.356439 -1.15973,-2.843304 -0.1664,-1.098145 -0.16672,-7.09812 -7.2e-4,-8.191134 0.20592,-1.353707 0.48762,-2.112276 1.00005,-2.693135 0.77644,-0.880114 1.9364,-1.24787 4.40112,-1.395345 1.40341,-0.08397 9.49758,-0.08499 10.89042,-0.0015 2.43472,0.146175 3.43591,0.439177 4.25946,1.246536 0.47079,0.461534 0.75022,0.985418 0.95248,1.785693 0.27331,1.081488 0.31997,1.832955 0.31997,5.153182 0,3.32023 -0.0467,4.071693 -0.31997,5.153181 -0.20226,0.800275 -0.48169,1.32416 -0.95248,1.785693 -0.81908,0.802981 -1.80979,1.095099 -4.22748,1.2465 -1.18459,0.07418 -9.91003,0.07029 -11.0958,-0.005 z m 8.31386,-4.180277 c 1.75808,-0.04058 2.30407,-0.164015 2.80339,-0.633805 0.49185,-0.462756 0.58626,-0.972842 0.58565,-3.164128 -7.2e-4,-2.42563 -0.1541,-3.194938 -0.74013,-3.710773 -0.55975,-0.492716 -1.06538,-0.536676 -5.78672,-0.503098 -3.95319,0.02811 -4.22787,0.04781 -4.73127,0.339303 -0.32793,0.189888 -0.61022,0.655253 -0.74442,1.227199 -0.0998,0.425168 -0.11605,0.790819 -0.11605,2.605031 0,1.851773 0.0141,2.156114 0.11514,2.483087 0.20667,0.668941 0.7276,1.092399 1.5511,1.260882 0.38995,0.07978 3.59165,0.171262 4.98485,0.142438 0.42209,-0.0087 1.3574,-0.0295 2.07846,-0.04614 z m -65.71367,3.914741 c -0.0169,-0.04438 -0.0233,-3.634861 -0.0143,-7.978851 l 0.0165,-7.898166 h 2.52614 2.52614 l 0.032,2.845898 0.032,2.845896 h 5.46795 5.46797 l 0.032,-2.845896 0.032,-2.845898 h 2.52613 2.52614 v 7.962118 7.962119 h -2.52614 -2.52613 l -0.032,-2.845898 -0.032,-2.845901 h -5.46797 -5.46795 l -0.032,2.845901 -0.032,2.845898 -2.51188,0.01673 c -1.97529,0.01315 -2.51842,-4.84e-4 -2.54258,-0.06395 z m 23.47067,0 c -0.0169,-0.04438 -0.0233,-3.634861 -0.0143,-7.978851 l 0.0165,-7.898166 h 2.52613 2.52613 v 7.962118 7.962119 l -2.51186,0.01673 c -1.9753,0.01315 -2.51843,-4.84e-4 -2.54259,-0.06395 z m 7.35458,3.6e-5 c -0.0169,-0.0444 -0.0233,-3.634897 -0.0143,-7.978887 l 0.0165,-7.898166 8.12202,-0.01803 c 5.40893,-0.01201 8.30358,0.0044 8.6656,0.04931 0.41168,0.051 0.6686,0.128339 1.05866,0.318689 0.89138,0.434988 1.37201,0.958972 1.65201,1.801007 0.25081,0.754243 0.3123,1.5085 0.2789,3.421002 -0.0312,1.788803 -0.0707,2.085803 -0.36578,2.752885 -0.23928,0.54094 -0.93249,1.088837 -1.64851,1.302952 -0.26693,0.07982 -0.34969,0.172224 -0.19186,0.214231 0.85212,0.226786 1.04099,0.317971 1.39796,0.67494 0.30245,0.302453 0.38774,0.439242 0.49953,0.801166 0.19626,0.635418 0.28568,2.044669 0.21923,3.454941 l -0.0542,1.151149 -2.35197,0.01677 c -1.84752,0.01317 -2.35846,-4.83e-4 -2.38226,-0.06395 -0.0167,-0.0444 -0.0565,-0.670696 -0.0885,-1.391764 -0.0631,-1.421801 -0.13134,-1.742535 -0.43989,-2.067279 -0.34168,-0.35961 -0.43977,-0.380504 -2.05999,-0.438754 -0.82659,-0.02972 -2.8411,-0.0464 -4.4767,-0.03707 l -2.97381,0.01697 -0.032,1.982535 -0.032,1.982534 -2.38395,0.01677 c -1.87293,0.01317 -2.39053,-4.83e-4 -2.41468,-0.06395 z m 12.60089,-8.036192 c 1.47603,-0.05053 1.57183,-0.06962 1.90409,-0.379603 0.26231,-0.244711 0.36623,-0.683279 0.36623,-1.545622 0,-1.125636 -0.1346,-1.463753 -0.70348,-1.767207 -0.21248,-0.113341 -0.45425,-0.119398 -4.76448,-0.119398 h -4.54066 l -0.017,1.85385 c -0.009,1.019618 -0.003,1.890177 0.014,1.934572 0.0244,0.06356 0.70073,0.07974 3.18268,0.07614 1.73342,-0.0025 3.7848,-0.02624 4.55865,-0.05274 z"
       id="path1423-3-4"
       inkscape:connector-curvature="0"
       sodipodi:nodetypes="ccccccccccccccscssccsccccccccsccccccsccccccssccscccsccsccccccscsscccccccccccccccccccccccccccccccccccccccccccscsccccccccccccccsccccccccscscccsc" />
  </g>
</svg>
