<svg version="1.1" xmlns="http://www.w3.org/2000/svg" xmlns:xlink="http://www.w3.org/1999/xlink" width="325" height="252"><defs/><g><g transform="translate(-302,-110) scale(1,1)"><rect fill="#C0C0C0" stroke="none" x="359" y="127" width="231.2822265625" height="88" opacity="0.2"/></g><g transform="translate(-302,-110) scale(1,1)"><rect fill="#ffffff" stroke="none" x="352" y="120" width="231.2822265625" height="88"/></g><g transform="translate(-302,-110) scale(1,1)"><path fill="none" stroke="#000000" d="M 352 120 L 583.2822265625 120 L 583.2822265625 208 L 352 208 L 352 120 Z Z" stroke-miterlimit="10"/></g><g transform="translate(-302,-110) scale(1,1)"><path fill="none" stroke="#000000" d="M 352 145 L 583.2822265625 145" stroke-miterlimit="10"/></g><g transform="translate(-302,-110) scale(1,1)"><path fill="none" stroke="#000000" d="M 352 198 L 583.2822265625 198" stroke-miterlimit="10"/></g><g transform="translate(-302,-110) scale(1,1)"><g><path fill="none" stroke="none"/><text fill="#000000" stroke="none" font-family="Arial" font-size="13px" font-style="normal" font-weight="bold" text-decoration="none" x="415.61572265625" y="139.5">ComparisonChain</text></g></g><g transform="translate(-302,-110) scale(1,1)"><g><path fill="none" stroke="none"/><text fill="#000000" stroke="none" font-family="Arial" font-size="13px" font-style="normal" font-weight="normal" text-decoration="none" x="357" y="162.5">-ACTIVE: ComparisonChain</text><path fill="none" stroke="#000000" d="M 357 162.5 L 519.55712890625 162.5" stroke-miterlimit="10"/></g></g><g transform="translate(-302,-110) scale(1,1)"><g><path fill="none" stroke="none"/><text fill="#000000" stroke="none" font-family="Arial" font-size="13px" font-style="normal" font-weight="normal" text-decoration="none" x="357" y="177.5">-GREATER: InactiveComparisonChain</text><path fill="none" stroke="#000000" d="M 357 177.5 L 579.2822265625 177.5" stroke-miterlimit="10"/></g></g><g transform="translate(-302,-110) scale(1,1)"><g><path fill="none" stroke="none"/><text fill="#000000" stroke="none" font-family="Arial" font-size="13px" font-style="normal" font-weight="normal" text-decoration="none" x="357" y="192.5">-LESS: InactiveComparisonChain</text><path fill="none" stroke="#000000" d="M 357 192.5 L 550.64794921875 192.5" stroke-miterlimit="10"/></g></g><g transform="translate(-302,-110) scale(1,1)"><rect fill="#C0C0C0" stroke="none" x="375" y="295" width="192" height="64" opacity="0.2"/></g><g transform="translate(-302,-110) scale(1,1)"><rect fill="#ffffff" stroke="none" x="368" y="288" width="192" height="64"/></g><g transform="translate(-302,-110) scale(1,1)"><path fill="none" stroke="#000000" d="M 368 288 L 560 288 L 560 352 L 368 352 L 368 288 Z Z" stroke-miterlimit="10"/></g><g transform="translate(-302,-110) scale(1,1)"><path fill="none" stroke="#000000" d="M 368 313 L 560 313" stroke-miterlimit="10"/></g><g transform="translate(-302,-110) scale(1,1)"><path fill="none" stroke="#000000" d="M 368 336 L 560 336" stroke-miterlimit="10"/></g><g transform="translate(-302,-110) scale(1,1)"><g><path fill="none" stroke="none"/><text fill="#000000" stroke="none" font-family="Arial" font-size="13px" font-style="normal" font-weight="bold" text-decoration="none" x="389.57373046875" y="307.5">InactiveComparisonChain</text></g></g><g transform="translate(-302,-110) scale(1,1)"><g><path fill="none" stroke="none"/><text fill="#000000" stroke="none" font-family="Arial" font-size="13px" font-style="normal" font-weight="normal" text-decoration="none" x="373" y="330.5">-result: int</text></g></g><g transform="translate(-302,-110) scale(1,1)"><path fill="none" stroke="#000000" d="M 465 287 L 466 209" stroke-miterlimit="10"/></g><g transform="translate(-302,-110) scale(1,1)"><path fill="#FFFFFF" stroke="none" d="M 474.1577837036744 229.43160701080717 L 466 209 L 457.32109630844093 229.21575204420162"/></g><g transform="translate(-302,-110) scale(1,1)"><path fill="none" stroke="#000000" d="M 474.1577837036744 229.43160701080717 L 466 209 L 457.32109630844093 229.21575204420162 L 474.1577837036744 229.43160701080717" stroke-miterlimit="10"/></g><g transform="translate(-302,-110) scale(1,1)"><path fill="none" stroke="#000000" d="M 368 304 L 312 304 L 312 168 L 352 168" stroke-miterlimit="10"/></g><g transform="translate(-302,-110) scale(1,1)"><path fill="#000000" stroke="none" d="M 341.83732514237585 172.209517756016 L 352 168 L 341.83732514237585 163.790482243984 L 330 168"/></g><g transform="translate(-302,-110) scale(1,1)"><path fill="none" stroke="#000000" d="M 341.83732514237585 172.209517756016 L 352 168 L 341.83732514237585 163.790482243984 L 330 168 L 341.83732514237585 172.209517756016" stroke-miterlimit="10"/></g><g transform="translate(-302,-110) scale(1,1)"><path fill="none" stroke="#000000" d="M 560 304 L 616 304 L 616 184 L 583 184" stroke-miterlimit="10"/></g><g transform="translate(-302,-110) scale(1,1)"><path fill="#000000" stroke="none" d="M 593.1626748576241 179.790482243984 L 583 184 L 593.1626748576241 188.209517756016 L 605 184"/></g><g transform="translate(-302,-110) scale(1,1)"><path fill="none" stroke="#000000" d="M 593.1626748576241 179.790482243984 L 583 184 L 593.1626748576241 188.209517756016 L 605 184 L 593.1626748576241 179.790482243984" stroke-miterlimit="10"/></g></g></svg>